HIERARCHY
ROOT Hips
{
	OFFSET 0.000000 0.000000 0.000000 
	CHANNELS 6 Xposition Yposition Zposition Zrotation Yrotation Xrotation
	JOINT LeftUpLeg
	{
		OFFSET 1.363060 -1.794630 0.839290 
		CHANNELS 3 Zrotation Yrotation Xrotation
		JOINT LeftLeg
		{
			OFFSET 2.448110 -6.726130 0.000000 
			CHANNELS 3 Zrotation Yrotation Xrotation
			JOINT LeftFoot
			{
				OFFSET 2.562200 -7.039590 0.000000 
				CHANNELS 3 Zrotation Yrotation Xrotation
				JOINT LeftToeBase
				{
					OFFSET 0.157640 -0.433110 2.322550 
					CHANNELS 3 Zrotation Yrotation Xrotation
					End Site
					{
						OFFSET 0.000000 0.000000 0.000000 
					}
				}
			}
		}
	}
	JOINT RightUpLeg
	{
		OFFSET -1.305520 -1.794630 0.839290 
		CHANNELS 3 Zrotation Yrotation Xrotation
		JOINT RightLeg
		{
			OFFSET -2.542530 -6.985550 0.000000 
			CHANNELS 3 Zrotation Yrotation Xrotation
			JOINT RightFoot
			{
				OFFSET -2.568260 -7.056230 0.000000 
				CHANNELS 3 Zrotation Yrotation Xrotation
				JOINT RightToeBase
				{
					OFFSET -0.164730 -0.452590 2.363150 
					CHANNELS 3 Zrotation Yrotation Xrotation
					End Site
					{
						OFFSET 0.000000 0.000000 0.000000 
					}
				}
			}
		}
	}
	JOINT Spine
	{
		OFFSET 0.028270 2.035590 -0.193380 
		CHANNELS 3 Zrotation Yrotation Xrotation
		JOINT Spine1
		{
			OFFSET 0.056720 2.048850 -0.042750 
			CHANNELS 3 Zrotation Yrotation Xrotation
			JOINT Neck1
			{
				OFFSET -0.054170 1.746240 0.172020 
				CHANNELS 3 Zrotation Yrotation Xrotation
				JOINT Head
				{
					OFFSET 0.104070 1.761360 -0.123970 
					CHANNELS 3 Zrotation Yrotation Xrotation
					End Site
					{
						OFFSET 0.000000 0.000000 0.000000 
					}
				}
			}
			JOINT LeftArm
			{
				OFFSET 3.362410 1.200890 -0.311210 
				CHANNELS 3 Zrotation Yrotation Xrotation
				JOINT LeftForeArm
				{
					OFFSET 4.983000 -0.000000 -0.000000 
					CHANNELS 3 Zrotation Yrotation Xrotation
					JOINT LeftHand
					{
						OFFSET 3.483560 -0.000000 -0.000000 
						CHANNELS 3 Zrotation Yrotation Xrotation
						JOINT LeftHandIndex1
						{
							OFFSET 0.715260 -0.000000 -0.000000 
							CHANNELS 3 Zrotation Yrotation Xrotation
							End Site
							{
								OFFSET 0.000000 0.000000 0.000000 
							}
						}
					}
				}
			}
			JOINT RightArm
			{
				OFFSET -3.136600 1.374050 -0.404650 
				CHANNELS 3 Zrotation Yrotation Xrotation
				JOINT RightForeArm
				{
					OFFSET -5.241900 -0.000000 -0.000000 
					CHANNELS 3 Zrotation Yrotation Xrotation
					JOINT RightHand
					{
						OFFSET -3.444170 -0.000000 -0.000000 
						CHANNELS 3 Zrotation Yrotation Xrotation
						JOINT RightHandIndex1
						{
							OFFSET -0.622530 -0.000000 -0.000000 
							CHANNELS 3 Zrotation Yrotation Xrotation
							End Site
							{
								OFFSET 0.000000 0.000000 0.000000 
							}
						}
					}
				}
			}
		}
	}
}
MOTION
Frames: 7
Frame Time: 0.041667
-13.176975 19.579985 3.339916 -179.601774 4.829376 -175.440325 -5.847763 22.775924 -33.365405 2.653134 11.878872 30.703931 4.422217 4.409361 37.044390 0.547200 -4.739000 -13.165700 13.420005 -27.996922 -37.906802 -6.240993 -13.304506 31.704147 13.272181 -33.409848 21.446695 -0.661300 -5.200800 14.482300 0.716033 5.018142 -5.060563 -1.290470 2.526278 -9.489384 5.842471 -1.534886 6.689928 -0.178600 -0.758100 8.436800 -50.102305 -43.104858 51.585246 118.449054 -50.078966 -95.853205 3.363235 -1.531088 -82.623502 -7.125000 0.000000 0.000000 48.210724 27.907499 45.359179 -100.382554 52.502275 -78.554534 -0.841778 1.785603 -93.664874 7.125000 0.000000 0.000000 
-13.204325 19.608929 3.360230 -179.645310 4.496272 -175.411601 -5.748859 22.644373 -33.357794 2.610472 11.923438 30.953891 4.787962 3.547103 37.152843 0.640100 -5.118700 -14.247300 13.276490 -27.916320 -37.785513 -6.224246 -13.231934 31.356059 13.595832 -34.026808 21.419384 -0.692200 -5.318800 14.820100 0.705706 5.011641 -5.053756 -1.190482 2.538388 -9.496146 6.000265 -1.527128 6.636085 -0.096600 -0.726100 8.427200 -46.831425 -40.646713 48.451607 119.744463 -49.848931 -96.877450 3.286886 -1.531507 -82.195541 -7.125000 0.000000 0.000000 46.738166 26.316277 43.286369 -100.814839 52.799849 -79.468257 -0.861099 1.818099 -92.996643 7.125000 0.000000 0.000000 
-13.236721 19.640395 3.381605 -179.652316 4.205488 -175.405295 -5.566979 22.413302 -33.245297 2.632749 12.011571 31.252440 4.979443 3.035124 37.183961 0.681100 -5.276700 -14.699500 13.128615 -27.828048 -37.644379 -6.198528 -13.161140 30.986642 13.875488 -34.614237 21.474114 -0.720500 -5.424200 15.122600 0.690996 5.000847 -5.045208 -1.142617 2.538817 -9.489259 6.162116 -1.519222 6.574997 -0.005200 -0.693200 8.409400 -43.508215 -38.032970 45.217427 120.631472 -49.820462 -97.660606 3.204935 -1.541969 -81.596559 -7.125000 0.000000 0.000000 45.172161 24.631016 41.113982 -101.018727 53.145837 -80.241273 -0.879485 1.866118 -92.388805 7.125000 0.000000 0.000000 
-13.275356 19.673853 3.404176 -179.615755 3.954101 -175.421000 -5.289274 22.060674 -33.007176 2.730129 12.146413 31.596755 4.964484 2.953266 37.120582 0.660400 -5.197600 -14.472900 12.987924 -27.747188 -37.501236 -6.166943 -13.095886 30.609090 14.082750 -35.139409 21.644899 -0.744700 -5.512300 15.375800 0.672977 4.990219 -5.034529 -1.134115 2.530517 -9.470296 6.329190 -1.512348 6.505232 0.100700 -0.661400 8.379300 -40.193543 -35.286762 41.949129 121.035936 -50.050236 -98.166742 3.119839 -1.557140 -80.762481 -7.125000 0.000000 0.000000 43.498352 22.853514 38.842479 -100.936835 53.552419 -80.846363 -0.897746 1.932570 -91.836343 7.125000 0.000000 0.000000 
-13.321028 19.708771 3.427809 -179.530373 3.745610 -175.429481 -4.907889 21.572748 -32.630832 2.906206 12.326337 31.980404 4.729754 3.336845 36.948279 0.588400 -4.911100 -13.655100 12.863558 -27.683092 -37.370770 -6.136868 -13.041662 30.237625 14.207988 -35.602870 21.955764 -0.752500 -5.540600 15.457100 0.653579 4.984839 -5.022459 -1.152860 2.517109 -9.448907 6.488726 -1.505349 6.430316 0.208900 -0.631400 8.338900 -36.952104 -32.429396 38.713695 120.881906 -50.589893 -98.362067 3.036291 -1.570870 -79.647203 -7.125000 0.000000 0.000000 41.724612 20.998458 36.498571 -100.486130 54.028776 -81.236818 -0.918077 2.012563 -91.322678 7.125000 0.000000 0.000000 
-13.374667 19.744618 3.452371 -179.392552 3.584257 -175.459674 -4.415534 20.939515 -32.108008 3.144953 12.539248 32.390547 4.316849 4.097516 36.685089 0.468400 -4.389600 -12.175500 12.763906 -27.643706 -37.263676 -6.114841 -13.004414 29.892961 14.230750 -35.984956 22.432041 -0.740200 -5.496200 15.329400 0.635041 4.989873 -5.008627 -1.182929 2.502196 -9.430179 6.636257 -1.496736 6.351962 0.316900 -0.603600 8.292000 -33.828747 -29.485161 35.572414 120.130586 -51.462476 -98.235263 2.961456 -1.598001 -78.256080 -7.125000 0.000000 0.000000 39.836649 19.077114 34.099013 -99.601856 54.578041 -81.387985 -0.940248 2.109829 -90.832649 7.125000 0.000000 0.000000 
-13.436404 19.779802 3.477729 -179.200258 3.477676 -175.492380 -3.823045 20.175566 -31.449932 3.425451 12.767619 32.801205 3.770886 5.140184 36.355360 0.335900 -3.724500 -10.302900 12.698711 -27.637198 -37.195589 -6.110888 -12.991878 29.600844 14.141283 -36.282574 23.088874 -0.701500 -5.353600 14.920000 0.619558 5.006841 -4.993806 -1.208572 2.488113 -9.424735 6.766697 -1.482301 6.274317 0.419900 -0.576300 8.245400 -30.854282 -26.469271 32.571935 118.732175 -52.677916 -97.776091 2.899116 -1.642185 -76.631090 -7.125000 0.000000 0.000000 37.843378 17.121662 31.686130 -98.195963 55.188229 -81.256258 -0.963717 2.224033 -90.371933 7.125000 0.000000 0.000000 
